<svg xmlns="http://www.w3.org/2000/svg" xmlns:xlink="http://www.w3.org/1999/xlink" viewBox="0 0 74.375 85" fill="#fff" fill-rule="evenodd" stroke="#000" stroke-linecap="round" stroke-linejoin="round"><use xlink:href="#A" x="2.188" y="2.5"/><symbol id="A" overflow="visible"><g stroke="none"><path d="M0 44.684l5.327-.204 4.711.379-5.563 19.145L0 44.684z" fill="#b7ca9d"/><path d="M20.21 59.806L35 64.004 46.999 34.47 35 0 20.21 6.997v52.808z" fill="#4b612c"/><path d="M49.79 59.806L35 64.004V0l14.79 6.997v52.808z" fill="#759c3e"/><path d="M59.962 54.169l5.563.719v-9.776l-5.563-.253v9.31z" fill="#4b612c"/><path d="M10.038 54.169l-5.563.719v-9.776l5.563-.253v9.31z" fill="#759c3e"/><path d="M34.405 53.771l-24.367-4.053-5.563.505 28.924 19.475 1.006-15.928z" fill="#b7ca9d"/><path d="M65.525 45.112L70 44.684V63.43l-4.475-2.993V45.112z" fill="#759c3e"/><path d="M70 44.684l-5.327-.204-4.711.379 5.563.253L70 44.684z" fill="#b7ca9d"/><g fill="#4b612c"><path d="M0 49.378l35 6.628V80L0 63.431V49.378z"/><path d="M4.475 45.112L0 44.684V63.43l4.475-1.623V45.112z"/></g><g fill="#b7ca9d"><path d="M35 53.897v21.701l30.525-25.374-5.553-.496L35 53.897z"/><path d="M45.469 47.007L35 46.239l-10.469.768L35 80l10.469-32.993z"/></g><g fill="#759c3e"><path d="M70 49.378l-35 6.628V80l35-16.569V49.378z"/><path d="M45.469 74.276L35 79.232V47.998l10.469-.991v27.269z"/></g><path d="M24.531 70.671L35 80V47.998l-10.469-.991v23.664z" fill="#4b612c"/></g></symbol></svg>