<svg xmlns="http://www.w3.org/2000/svg" xmlns:xlink="http://www.w3.org/1999/xlink" viewBox="0 0 69.063 85" fill="#fff" fill-rule="evenodd" stroke="#000" stroke-linecap="round" stroke-linejoin="round"><use xlink:href="#A" x="2.031" y="2.5"/><symbol id="A" overflow="visible"><g stroke="none"><path d="M0 35.336l6.54-.702 8.149 8.605-8.149 7.317L0 49.219V35.336z" fill="#4b612c"/><path d="M46.241 26.78L32.5 28.663 18.759 26.78 32.5 0l13.741 26.78z" fill="#3c4929"/><path d="M49.727 49.668l8.733.888 5.123-7.961-5.123-7.961-8.733.371v14.663z" fill="#4b612c"/><path d="M46.241 26.78L32.5 23.893V0l13.741 7.005V26.78zM65 35.336l-6.54-.702v15.922L65 49.219V35.336zM15.273 49.668l-8.733.888V34.634l8.733.371v14.663z" fill="#759c3e"/><path d="M18.759 26.78L32.5 23.893V0L18.759 7.005V26.78zm-6.866 42.772L32.5 80l18.271-24.82L32.5 31.893l-20.607 2.176v35.483z" fill="#4b612c"/><path d="M53.117 69.552L32.5 80V31.893l20.617 2.176v35.483z" fill="#759c3e"/></g></symbol></svg>