<svg xmlns="http://www.w3.org/2000/svg" xmlns:xlink="http://www.w3.org/1999/xlink" viewBox="0 0 85 85" fill="#fff" fill-rule="evenodd" stroke="#000" stroke-linecap="round" stroke-linejoin="round"><use xlink:href="#A" x="2.5" y="2.5"/><symbol id="A" overflow="visible"><path d="M73.626 71.508a2.43 2.43 0 0 1-2.432 2.424H45.856a2.45 2.45 0 0 1-1.734-.704c-.462-.455-.723-1.073-.727-1.72H0v2.424a6.06 6.06 0 0 0 1.783 4.291C2.924 79.361 4.472 80 6.086 80h67.799a6.11 6.11 0 0 0 4.318-1.771A6.07 6.07 0 0 0 80 73.932v-2.424zm3.698-28.861l-3.928 4.303c-.008 1.523-1.249 2.754-2.777 2.754H9.295c-1.522-.008-2.755-1.236-2.763-2.754l-3.309-4.303H.058v4.303c.016 5.073 4.149 9.174 9.237 9.166h61.324c5.09.008 9.228-4.091 9.252-9.166v-4.303z" fill="#9d5125" stroke="none"/><path d="M73.885 59.444a6.08 6.08 0 0 1 4.316 1.753c1.148 1.133 1.795 2.676 1.799 4.286v4.877c-.004 1.613-.65 3.159-1.797 4.297a6.11 6.11 0 0 1-4.318 1.771H6.101c-1.617.004-3.168-.634-4.313-1.772A6.06 6.06 0 0 1 0 70.36v-4.863a6.04 6.04 0 0 1 1.789-4.276 6.08 6.08 0 0 1 4.298-1.763zM71.194 70.36a2.43 2.43 0 0 1-2.432-2.424 2.432 2.432 0 1 1 4.863 0 2.43 2.43 0 0 1-2.432 2.424H45.856a2.43 2.43 0 0 1 2.432 2.424 2.432 2.432 0 1 1-4.863 0 2.43 2.43 0 0 1 2.432-2.424h25.338M70.619 0c5.085-.008 9.22 4.083 9.252 9.152v34.226c-.024 5.075-4.161 9.174-9.252 9.166H9.295C4.207 52.552.074 48.45.058 43.378V9.166C.082 4.099 4.213.006 9.295.014zm2.777 43.378V9.166a2.75 2.75 0 0 0-.814-1.952c-.521-.517-1.228-.806-1.963-.802H9.295c-.733 0-1.435.29-1.953.807a2.75 2.75 0 0 0-.809 1.947v34.212c.008 1.518 1.24 2.746 2.763 2.754H70.62c1.528 0 2.769-1.231 2.777-2.754" stroke="none" fill="#f58535"/></symbol></svg>