<svg xmlns="http://www.w3.org/2000/svg" xmlns:xlink="http://www.w3.org/1999/xlink" viewBox="0 0 74.375 85" fill="#fff" fill-rule="evenodd" stroke="#000" stroke-linecap="round" stroke-linejoin="round"><use xlink:href="#A" x="2.188" y="2.5"/><symbol id="A" overflow="visible"><g stroke="none"><path d="M25.352 53.602l-15.345-2.72L0 51.844l14.421 18.742 10.931-16.983z" fill="#99bce3"/><path d="M25.352 26.718l-15.345 2.721L0 28.477 14.421 9.735l10.931 16.983z" fill="#19486f"/><path d="M14.421 25.173L0 28.477V16.556l14.421-6.82 9.864 10.173-9.864 5.266zm0 23.736L0 46.898v-13.99l14.421-2.069 8.252 10.085-8.252 7.986zm0 6.287L0 51.844v11.921l14.421 6.821 9.864-8.686-9.864-6.704z" fill="#205b99"/><path d="M25.352 26.718l-10.931-1.545V9.735l10.931 3.148v13.835zm0 26.884l-10.931 1.593v15.39l10.931-3.148V53.602zm0-5.654l-10.931.962V30.838l10.931.952v16.157z" fill="#5294cf"/><path d="M58.617 17.683v47.044l6.918-4.168 3.9-18.246-3.233-23.609-7.585-1.02z" fill="#205b99"/><path d="M38.182 20.801l3.377-11.066 27.056 14.603-9.874 1.312-20.559-4.848z" fill="#19486f"/><path d="M35.801 59.888l9.761 7.889 23.053-11.989-9.925-1.331-22.889 5.431z" fill="#99bce3"/><path d="M20.199 73.005L34.989 80l9.987-38.795L34.989 0l-14.79 6.995v66.009z" fill="#205b99"/><path d="M35 0v80l35-16.565V16.566zm30.546 55.38L45.49 61.064V19.101l20.046 5.645z" fill="#5294cf"/></g></symbol></svg>