<svg xmlns="http://www.w3.org/2000/svg" xmlns:xlink="http://www.w3.org/1999/xlink" viewBox="0 0 74.375 85" fill="#fff" fill-rule="evenodd" stroke="#000" stroke-linecap="round" stroke-linejoin="round"><use xlink:href="#A" x="2.188" y="2.5"/><symbol id="A" overflow="visible"><g stroke="none"><path d="M9.822 68.088L0 63.444V16.556l9.822-4.644 17.479 29.707L9.822 68.088z" fill="#8c3123"/><path d="M16.356 66.244l-6.534 1.844V11.912l6.534 1.678 12.996 27.542-12.996 25.112z" fill="#e05243"/><path d="M34.99 58.722l30.537 6.829 3.009-45.307-39.184 1.132 5.637 37.346z" fill="#8c3123"/><path d="M36.814 26.488l6.782 1.102 21.932-2.917L44.41 10.849l-7.4 9.22-.196 6.42z" fill="#5e1f18"/><path d="M16.356 71.181L35 80l5.936-38.546L35 0 16.356 8.82v62.361z" fill="#8c3123"/><path d="M70 16.566l-.021-.01-4.452-2.107L35 0v16 64l10.471-4.956V18.976l20.056 5.698v40.878l4.452-2.107V25.932l.021.01v-9.376z" fill="#e05243"/></g></symbol></svg>