<svg xmlns="http://www.w3.org/2000/svg" xmlns:xlink="http://www.w3.org/1999/xlink" viewBox="0 0 74.375 85" fill="#fff" fill-rule="evenodd" stroke="#000" stroke-linecap="round" stroke-linejoin="round"><use xlink:href="#A" x="2.188" y="2.5"/><symbol id="A" overflow="visible"><g stroke="none"><path d="M69.774 54.069L35 49.942.225 54.069 35 80.001l34.775-25.932z" fill="#99bce3"/><path d="M70 25.942l-35.225 4.107L0 25.932 35 0l35 25.942z" fill="#19486f"/><path d="M35 0L0 16.556v9.385L35 16V0zm0 64L0 54.068v9.376L35 80V64zm0-11.902l-15.17-2.117V30.186L35 28.098l14.289 12-14.289 12z" fill="#205b99"/><path d="M35 0l35 16.556v9.385L35 16V0zm0 64l35-9.932v9.376L35 80V64zm0-11.902l15.17-2.117V30.186L35 28.098v24z" fill="#5294cf"/></g></symbol></svg>