<svg xmlns="http://www.w3.org/2000/svg" xmlns:xlink="http://www.w3.org/1999/xlink" viewBox="0 0 69.063 85" fill="#fff" fill-rule="evenodd" stroke="#000" stroke-linecap="round" stroke-linejoin="round"><use xlink:href="#A" x="2.031" y="2.5"/><symbol id="A" overflow="visible"><g stroke="none"><path d="M64.876 44.664l-32.443-1.376L0 44.664l32.433 15.268 32.443-15.268z" fill="#fcbf92"/><path d="M.01 39.971h39V3.307L32.539 0 .01 16.576v23.395z" fill="#9d5025"/><path d="M65 56.468l-32.51-4.839L.01 56.468 32.558 80 65 56.468z" fill="#fcbf92"/><g fill="#9d5025"><path d="M32.538 39.971H49.7V15.015l-5.011-2.049-12.151 3.62v23.385z"/><path d="M44.689 39.97h13.258V23.785l-3.789-1.161-9.468 1.639V39.97z"/><path d="M54.157 39.97h10.719L65 21.268l-3.255-1.327-7.588 1.405V39.97z"/></g><path d="M39.009 3.307L32.538 0v39.971h6.471V3.307zM49.7 15.015l-5.011-2.049v27.005H49.7V15.015zm8.246 8.77l-3.789-1.161V39.97h3.789V23.785zm3.799-3.844L65 21.268V39.97h-3.255V19.941zm3.131 31.717l-32.443 8.273V47.98l32.443-3.317v6.995zm.124 4.81L32.433 68.205V80L65 63.356v-6.888z" fill="#f58534"/><path d="M.01 56.468l32.424 11.649V80L.01 63.434v-6.966zM0 44.663l32.433 3.317v11.951L0 51.658v-6.995z" fill="#9d5025"/></g></symbol></svg>