<svg xmlns="http://www.w3.org/2000/svg" xmlns:xlink="http://www.w3.org/1999/xlink" viewBox="0 0 74.375 85" fill="#fff" fill-rule="evenodd" stroke="#000" stroke-linecap="round" stroke-linejoin="round"><use xlink:href="#A" x="2.188" y="2.5"/><symbol id="A" overflow="visible"><g stroke="none"><path d="M46.089 58.566L9.82 68.049V11.903l36.269 9.278v37.385z" fill="#759c3e"/><path d="M9.82 68.049L0 63.386V16.547l9.82-4.644v56.146zm6.54-35.913l18.63-2.224v20.02l-18.63-2.205v-15.59z" fill="#4b612c"/><path d="M70 28.293l-16.989 1.659-36.65-5.512L34.99 0 70 28.293z" fill="#3c4929"/><path d="M16.36 8.81L34.99 0v20.049l-18.629 4.39V8.81z" fill="#4b612c"/><path d="M70 51.678L53.011 50.01l-36.65 5.541 18.63 24.224L70 51.678z" fill="#b7ca9d"/><path d="M16.36 71.151L34.99 80V59.951l-18.629-4.4v15.6z" fill="#4b612c"/><path d="M70 28.293l-35.01-8.244V0L70 16.556v11.737zm0 17.512l-35.01 4.127V29.883L70 34.059v11.746zm0 17.61L34.99 80V59.951L70 51.678v11.737z" fill="#759c3e"/></g></symbol></svg>