<svg xmlns="http://www.w3.org/2000/svg" xmlns:xlink="http://www.w3.org/1999/xlink" viewBox="0 0 74.375 85" fill="#fff" fill-rule="evenodd" stroke="#000" stroke-linecap="round" stroke-linejoin="round"><use xlink:href="#B" x="2.188" y="2.5"/><defs><linearGradient id="A" x1="50%" y1="0%" x2="50%" y2="100%"><stop offset="0%" stop-color="#f58536"/><stop offset="100%" stop-color="#d16929"/></linearGradient></defs><symbol id="B" overflow="visible"><g stroke="none"><path d="M0 19.953L35 0l35 19.953v40L35 80 0 59.953v-40z" fill="url(#A)"/><path d="M23.081 21.553v9.318H12.486c-.477 0-.934.188-1.271.524s-.526.79-.526 1.265h0v24.753h0c0 .474.189.929.526 1.264s.794.524 1.271.524h17.973a1.8 1.8 0 0 0 1.271-.524c.337-.335.526-.79.526-1.264h0v-2.635h21.189v-1.882c0-1.224-4.351-2.259-10.216-2.541v-2.824h15.23V21.553zm-1.608 36.8c-.612 0-1.164-.367-1.398-.93a1.5 1.5 0 0 1 .328-1.641 1.52 1.52 0 0 1 1.649-.326c.566.233.934.782.934 1.391.005.401-.153.787-.438 1.071a1.5 1.5 0 0 1-1.076.435zm7.189-3.859H14.378V34.541h14.284zm9.554-4.141c-1.996.068-3.986.256-5.959.565v-3.482h5.959zm16.649-6.494H32.351v-11.2h0c0-.474-.189-.929-.526-1.265s-.794-.524-1.271-.524h-3.689v-5.553h28.095v18.541z"/></g></symbol></svg>