<svg xmlns="http://www.w3.org/2000/svg" xmlns:xlink="http://www.w3.org/1999/xlink" viewBox="0 0 74.375 85" fill="#fff" fill-rule="evenodd" stroke="#000" stroke-linecap="round" stroke-linejoin="round"><use xlink:href="#A" x="2.188" y="2.5"/><symbol id="A" overflow="visible"><g stroke="none"><path d="M0 65.115l7.021 3.56 43.246-28.434L7.021 11.326 0 14.886 9.913 40 0 65.115z" fill="#4b612c"/><path d="M30.656 39.979l25.015 4.196 7.299-32.839-32.313 8.236v20.407z" fill="#b7ca9d"/><path d="M32.21 40.042l23.8.01 6.959 28.612-30.759-7.839V40.042z" fill="#3c4929"/><path d="M37.852 19.186l-30.831-7.86L20.28 40l22.153 8.737-4.581-29.551z" fill="#b7ca9d"/><path d="M40.672 10.094l-5.631 1.858V2.516L40.672.021v10.073zm0 69.885l-5.631-2.495v-13.58l5.631 1.587V79.98z" fill="#4b612c"/><path d="M29.369 10l5.672 1.889V2.516L29.369 0v10zm0 70l5.672-2.516V59.541l-5.672 1.305V80zm33.6-11.336L70 65.104 60.169 40 70 14.896l-7.031-3.559L49.782 40l13.187 28.664z" fill="#759c3e"/><path d="M29.369 0L16.347 6.608l8.709 15.491L34.99 39.76l9.409-23.57-9.409-8.288L29.369 0z" fill="#4b612c"/><path d="M40.672.021l-5.631 7.954-.051.084V39.76l.123.219 9.965-17.891 8.616-15.459L40.672.021z" fill="#759c3e"/><path d="M46.818 40.031l-26.538.021L7.021 68.674l39.797-10.146V40.031z" fill="#3c4929"/><path d="M25.056 57.891l-8.709 15.501L29.369 80l5.621-7.902v-.157l10.974-7.14L34.99 40.24l-9.934 17.651z" fill="#4b612c"/><path d="M45.078 57.923l-9.965-17.902-.123.219v31.701l.051.084 5.631 7.954 13.022-6.608-8.616-15.449z" fill="#759c3e"/></g></symbol></svg>