<svg xmlns="http://www.w3.org/2000/svg" xmlns:xlink="http://www.w3.org/1999/xlink" viewBox="0 0 74.375 90.313" fill="#fff" fill-rule="evenodd" stroke="#000" stroke-linecap="round" stroke-linejoin="round"><use xlink:href="#A" x="2.188" y="2.656"/><symbol id="A" overflow="visible"><g stroke="none"><path d="M56.027 27.511l9.508-12.159L70 27.511l-9.157 1.171-4.816-1.171z" fill="#19486f"/><path d="M40.29 60.444l25.245 5.079 4.011-16.938-4.011-16.948L40.29 34v26.443z" fill="#205b99"/><path d="M35 48.522v19.405l30.535-19.996-23.141-1.068L35 48.522z" fill="#99bce3"/><g fill="#205b99"><path d="M40.868 42.5h8.931L61.72 30.89 49.799 14.398 40.868 17v25.5z"/><path d="M56.027 27.511l9.508-1.306V15.352l-9.508 2.239v9.92z"/></g><g fill="#5294cf"><path d="M70 47.455L35 51v34l35-17.591V47.455z"/><path d="M35 85l10.457-15.155v-42.22L35 25.5 24.09 53.322 35 85zm30.535-25.427L70 67.41V32.58l-4.465-.943v27.936zM70 17.591l-4.465-2.239v10.853L70 27.511v-9.92zm-7.043 2.125l-13.159-5.318V42.5h13.159V19.716z"/></g><path d="M13.973 27.511L4.465 15.352 0 27.511l9.157 1.171 4.816-1.171z" fill="#19486f"/><path d="M29.72 60.444L4.465 65.523V31.637L29.72 34v26.443z" fill="#5294cf"/><path d="M35 48.522v21.571L4.465 47.932l23.141-1.068L35 48.522z" fill="#99bce3"/><g fill="#5294cf"><path d="M29.132 42.5h-8.93L9.219 29.263l10.983-14.865L29.132 17v25.5z"/><path d="M13.973 27.511l-9.508-1.306V15.352l9.508 2.239v9.92z"/></g><g fill="#205b99"><path d="M0 47.455L35 51v34L0 67.409V47.455z"/><path d="M35 85L24.543 70.934V27.625L35 25.5V85zM4.465 66.601L0 67.41V32.58l4.465-.943v34.964zM0 17.591l4.465-2.239v10.853L0 27.511v-9.92zm7.043 2.125l13.159-5.318V42.5H7.043V19.716z"/></g><path d="M45.457 20.193L35 22.67l-10.457-2.477L35 0l10.457 20.193z" fill="#19486f"/><path d="M35 0l10.457 5.318v14.875L35 17V0z" fill="#5294cf"/><path d="M35 0L24.543 5.318v14.875L35 17V0z" fill="#205b99"/></g></symbol></svg>