<svg xmlns="http://www.w3.org/2000/svg" xmlns:xlink="http://www.w3.org/1999/xlink" viewBox="0 0 72 82" fill="#fff" fill-rule="evenodd" stroke="#000" stroke-linecap="round" stroke-linejoin="round"><style><![CDATA[.B{stroke:none}.C{fill:#303030}.D{fill:#4b612c}.E{fill:#759c3e}.F{fill:#b7ca9d}]]></style><use xlink:href="#A" x=".5" y=".5"/><symbol id="A" overflow="visible"><path d="M10 67.07V48.972L0 47v15z" class="B D"/><path d="M38.5 58.527V45.919L47 45v11z" class="B E"/><path d="M24.5 62.689V47.432L10 49v18z" class="B E"/><path d="M46 60.569V46.521L64 48v17.5z" class="B D"/><path d="M38.5 58.514v-12.61L27.5 45v10.5z" class="B D"/><path d="M64 47.979v17.57L71 62V46.5z" class="B E"/><path d="M13.25 45.75L0 47l10 2 14.5-1.5z" class="B F"/><path d="M35.5 43.75l-8 1.25 11 1 8.5-1z" class="B F"/><path d="M54.25 45.5l16.75 1-7 1.5-18-1.5z" class="B F"/><path d="M48.5 0l17 8.5v27.75h-17z" class="B E"/><path d="M22 9.75L30.25 12v24.25H22z" class="B E"/><path d="M29 7.28v28.97h19.5V0z" class="B D"/><path d="M22 9.893V36.25H11V14z" class="B D"/><path d="M16.5 70.367V50.254L35.5 54v26z" class="B D"/><path d="M50.75 50.75v21.5L35.5 80V54z" class="B E"/><path d="M31.5 48.25l-15 2 19 3.75 15.25-3.25z" class="B F"/></symbol></svg>