<svg xmlns="http://www.w3.org/2000/svg" xmlns:xlink="http://www.w3.org/1999/xlink" viewBox="0 0 79.688 85" fill="#fff" fill-rule="evenodd" stroke="#000" stroke-linecap="round" stroke-linejoin="round"><use xlink:href="#A" x="2.344" y="2.5"/><symbol id="A" overflow="visible"><path d="M51.342 59.546L60 60.751l-6.143 12.921-8.868-12.921 6.353-1.205zm-27.673.011l6.32 1.194-8.857 12.921-6.11-12.91 8.647-1.205z" fill="#fbbf93" stroke="none"/><path d="M21.132 73.671l-6.11-2.376V60.761l6.11 1.423L28.5 67.21l-7.368 6.461zM0 55.494l10.511 2.091L22.5 36.682l-11.989-23.29L0 18.615v36.879z" stroke="none" fill="#9d5025"/><path d="M37.489 69.269l6.441-1.719v-9.045l-6.441 1.04v9.723z" fill="#f58536" stroke="none"/><path d="M37.489 69.269l-6.397-1.719v-9.034l6.397 1.029v9.723z" fill="#9d5025" stroke="none"/><path d="M21.132 73.671l8.857-2.387V60.75l-8.856 1.435v11.486zM28.5 55.648l-17.989 1.938V13.392L28.5 18.221v37.427z" stroke="none" fill="#f58536"/><path d="M53.857 73.671l-8.868-2.387V60.75l8.868 1.435 5.096 4.413-5.096 7.074z" fill="#9d5025" stroke="none"/><path d="M37.489 62.185l9 1.708-9 16.107L28.5 63.893l8.989-1.708z" fill="#fbbf93" stroke="none"/><path d="M37.489 80L28.5 76.518V63.893l8.989 2.091 5.669 5.957L37.489 80zm7.908-24.484l19.07 2.048 8.04-19.48-8.04-24.692-19.07 5.125v37zm-27.871 3.46l19.963 3.964 6.927-29.324L37.489 0 17.526 9.91v49.067z" stroke="none" fill="#9d5025"/><path d="M53.857 62.185l6.144-1.434v10.534l-6.144 2.387V62.185zm-7.368 1.708l-9 2.091V80l9-3.482V63.893zm17.978-50.501L75 18.626v36.857l-10.533 2.081V13.392zM37.489 0L57.54 9.954v48.99l-20.051 3.975V0z" stroke="none" fill="#f58536"/></symbol></svg>