<svg xmlns="http://www.w3.org/2000/svg" viewBox="0 0 64 64" fill="#fff" fill-rule="nonzero" stroke="none" stroke-linecap="round" stroke-linejoin="round"><path d="M32.796 6.078l-19.176 5.04v28.879s6.335 11.851 19.176 18.526V6.078z" fill="#11598d"/><path d="M32.691 7.907l18.594 4.88v27.96s-6.143 11.474-18.594 17.936V7.907z" fill="#1b75bc"/><path d="M32.624 9.648l15.866 4.199v25.502c-1.48 2.409-6.814 10.359-15.866 15.659-9.051-5.3-14.386-13.25-15.866-15.659V13.847l15.866-4.199m0-3.648l-19.376 5.094v29.184S19.649 52.255 32.624 59C45.599 52.22 52 40.278 52 40.278V11.094L32.624 6h0z" fill="#064976"/><path d="M30.42 35.976l-1.618 1.618c-1.136 1.136-3.029 1.136-4.164 0s-1.136-3.029 0-4.164l4.887-4.887c1.136-1.136 3.029-1.136 4.164 0l.034-.034c.379.379.998.379 1.377 0l.654-.654c.379-.379.379-.998 0-1.377a5.88 5.88 0 0 0-8.329 0l-4.887 4.887a5.88 5.88 0 1 0 8.329 8.329l3.097-3.097a7.81 7.81 0 0 1-3.545-.619z" fill="#f47920"/><path d="M42.499 19.697a5.88 5.88 0 0 0-8.329 0l-3.097 3.097c1.205-.069 2.409.138 3.545.585l1.618-1.618c1.136-1.136 3.029-1.136 4.164 0s1.136 3.029 0 4.164l-4.887 4.887c-1.136 1.136-3.029 1.136-4.164 0-.379-.379-.998-.379-1.377 0l-.654.654c-.379.379-.379.998 0 1.377l-.034.034a5.88 5.88 0 0 0 8.329 0l4.887-4.887c2.306-2.237 2.306-5.988 0-8.294z" fill="#fbb040"/></svg>