<svg xmlns="http://www.w3.org/2000/svg" xmlns:xlink="http://www.w3.org/1999/xlink" viewBox="0 0 74.375 85" fill="#fff" fill-rule="evenodd" stroke="#000" stroke-linecap="round" stroke-linejoin="round"><use xlink:href="#A" x="2.188" y="2.5"/><symbol id="A" overflow="visible"><g stroke="none"><path d="M69.989 26.11v-8.449l-8.794-9.732L46.802 40l14.394 32.06 8.794-9.743v-8.449l-2.931 2.013v-4.059l2.931-1.537V41.78l-2.931.077v-3.804l2.931.144v-8.283l-2.931-1.548v-2.853l2.931.597z" fill="#2e73b8"/><path d="M45.521 80l15.674-7.94V7.918L45.521 0 27.748 40.675 45.521 80z" fill="#5294cf"/><path d="M23.537 80h21.984V0H23.537L12.184 40.675 23.537 80z" fill="#2e73b8"/><path d="M23.537 80L7.722 72.06 2.745 40.675 7.722 7.918 23.493 0l.044 80z" fill="#205b99"/><path d="M67.058 51.822l-5.873 2.897-15.662 3.417H34.825 23.538L8.159 54.719l-.273-.055-.175-.044V42.543l15.805 1.15h11.309 10.697l15.673-1.15L70 41.802l-2.942-.022v-3.561l2.898-.033-8.761-.652-15.673-.509H34.825 23.658l-15.947.387V25.247l.175-.033 15.772-3.749h11.167 10.697l15.673 3.749 5.862 3.163v-2.002l2.931-.243-8.794-6.215-15.673-5.12H34.825 23.658L7.711 20.094V7.918L.022 17.661v8.46l2.198.254v2.035L.022 29.737v8.46l2.198.022v3.561l-2.198.033v8.416l2.198 1.327v2.068L0 53.879l.022 8.427 7.689 9.743V59.873l15.816 4.932h11.298 10.697l15.673-4.91 8.794-6.027-2.931-.243v-1.803z" fill="#19486f"/></g></symbol></svg>