<svg xmlns="http://www.w3.org/2000/svg" xmlns:xlink="http://www.w3.org/1999/xlink" viewBox="0 0 74.375 85" fill="#fff" fill-rule="evenodd" stroke="#000" stroke-linecap="round" stroke-linejoin="round"><use xlink:href="#B" x="2.188" y="2.5"/><defs><linearGradient id="A" x1="50%" y1="0%" x2="50%" y2="100%"><stop offset="0%" stop-color="#f58536"/><stop offset="100%" stop-color="#d16929"/></linearGradient></defs><symbol id="B" overflow="visible"><g stroke="none"><path d="M0 19.995L35 0l35 19.995v40.009L35 80 0 60.005V19.995z" fill="url(#A)"/><path d="M23.97 36.293h14.265v3.688H23.97zm0 7.386h14.265v3.688H23.97zm0 7.385h14.265v3.688H23.97zm17.945-19.929v21.398h3.68V27.447H27.65v3.688h14.265z"/><path d="M52.973 20.09H23.97v7.386h-7.369v36.132h28.993v-7.386h7.378zM41.915 59.91H20.281V31.135h21.634zm7.369-7.386h-3.689V27.447H27.621V23.75h21.662z"/></g></symbol></svg>