<svg xmlns="http://www.w3.org/2000/svg" xmlns:xlink="http://www.w3.org/1999/xlink" viewBox="0 0 74.375 85" fill="#fff" fill-rule="evenodd" stroke="#000" stroke-linecap="round" stroke-linejoin="round"><use xlink:href="#A" x="2.188" y="2.5"/><symbol id="A" overflow="visible"><g stroke="none"><path d="M56.408 30.664l9.264-12.166L70 30.664l-8.893.702-4.699-.702z" fill="#3c4929"/><g fill="#b7ca9d"><path d="M55.697 49.337l10.026 3.473L70 49.337l-9.326-.732-4.977.732z"/><path d="M43.445 51.083l9.892 1.873 8.017-1.873-10.511-1.063-7.399 1.063z"/></g><path d="M49.823 29.717l10.346-1.063V51.21l-10.346-1.171V29.717z" fill="#4b612c"/><path d="M44.475 28.605l10.583-1.307 6.801 1.307-10.233 1.054-7.151-1.054z" fill="#3c4929"/><path d="M65.527 24.673l-5.358-1.522v33.698l5.358-1.522V24.673z" fill="#759c3e"/><path d="M13.571 30.663l-6.78-7.151L0 30.663l8.883.702 4.688-.702z" fill="#3c4929"/><g fill="#b7ca9d"><path d="M14.293 49.337l-9.717 6.429L0 49.337l9.315-.732 4.977.732z"/><path d="M26.545 51.083l-9.48 3.405-8.419-3.405 10.501-1.063 7.399 1.063z"/></g><path d="M20.166 29.717L8.223 28.654 9.82 51.22l10.346-1.18V29.717z" fill="#759c3e"/><path d="M25.617 28.653l-10.583-1.307-6.811 1.307 10.233 1.054 7.162-1.054z" fill="#3c4929"/><path d="M35.056 60.244l-13.128-2.449.556-36.215 12.572.341v38.322z" fill="#759c3e"/><g fill="#4b612c"><path d="M16.364 58.713l8.161 2.312V18.976l-8.161 2.312v37.424zm18.631-2.059l12.139-.722-.381-30.858-11.758.683v30.898zM4.462 24.673l5.358-1.522v33.698l-5.358-1.522V24.673z"/><path d="M34.995 0L0 16.566v14.098l34.995-6.722V0z"/></g><path d="M45.464 25.951l-10.47 1.532-10.47-1.532 10.47-2.01 10.47 2.01z" fill="#3c4929"/><path d="M45.547 54.029l-10.552-1.668-10.47 1.688L34.995 80l10.552-25.971z" fill="#b7ca9d"/><path d="M0 49.337l34.995 6.722V80L0 63.435V49.337z" fill="#4b612c"/><g fill="#759c3e"><path d="M70 49.337l-35.005 6.722V80L70 63.435V49.337z"/><path d="M53.708 58.713l-8.161 2.312V18.976l8.161 2.312v37.424z"/><path d="M34.995 0L70 16.566v14.098l-35.005-6.722V0z"/></g></g></symbol></svg>