<svg xmlns="http://www.w3.org/2000/svg" xmlns:xlink="http://www.w3.org/1999/xlink" viewBox="0 0 74.375 85" fill="#fff" fill-rule="evenodd" stroke="#000" stroke-linecap="round" stroke-linejoin="round"><use xlink:href="#A" x="2.188" y="2.5"/><symbol id="A" overflow="visible"><path d="M41.899 23.571l18.178-11.639 9.862 11.639-17.003 2.332L41.9 23.571zm-13.808 0L9.914 11.873.052 23.571l17.003 2.332 11.036-2.332z" fill="#3c4929" stroke="none"/><path d="M70 46.956l-35.005-2.029L0 46.956 34.995 80 70 46.956z" fill="#b7ca9d" stroke="none"/><path d="M28.091 23.571L9.913 20.302v-8.429l18.178 4.673v7.024z" fill="#759c3e" stroke="none"/><path d="M.052 23.571l9.862-3.268v-8.429L.052 16.536v7.034zm41.847 0l18.178-3.268v-8.429l-18.178 4.673v7.024z" stroke="none" fill="#4b612c"/><path d="M69.939 23.571l-9.862-3.268v-8.429l9.862 4.663v7.034z" fill="#759c3e" stroke="none"/><path d="M0 40h34.995L70 35.024 34.995 24 0 30.624V40zm34.995 40L0 63.434V46.956l34.995 4.927V80z" stroke="none" fill="#4b612c"/><path d="M70 63.434L34.995 80V51.883L70 46.956v16.478zM70 40H34.995V24L70 30.624V40z" stroke="none" fill="#759c3e"/><path d="M53.626 18.156l-18.631 3.951-18.631-3.951L34.995 0l18.631 18.156z" fill="#3c4929" stroke="none"/><path d="M16.364 18.156l18.631-6.176V0L16.364 8.82v9.337z" fill="#4b612c" stroke="none"/><path d="M53.626 18.156l-18.631-6.176V0l18.631 8.82v9.337z" fill="#759c3e" stroke="none"/></symbol></svg>