<svg xmlns="http://www.w3.org/2000/svg" xmlns:xlink="http://www.w3.org/1999/xlink" viewBox="0 0 72 82" fill="#fff" fill-rule="evenodd" stroke="#000" stroke-linecap="round" stroke-linejoin="round"><use xlink:href="#A" x=".5" y=".5"/><symbol id="A" overflow="visible"><g stroke="none"><path d="M2.25 45.25L0 45V25.942l2.25-.692v20z" fill="#4b612c"/><path d="M9.966 26.303L2.25 25.25v20L10 45l-.034-18.697z" fill="#759c3e"/><path d="M7.008 18.624l5.906-1.902L13 46.25l-6-.5.008-27.126z" fill="#4b612c"/><path d="M24.5 19l-11.586-2.278L13 46.25 24.5 45V19z" fill="#759c3e"/><path d="M20 47l15 1 34.65-8L34.99 0 20 7.5V47z" fill="#4b612c"/><path d="M70 57.405L34.949 51.19 0 57.405 34.949 80 70 57.405z" fill="#b7ca9d"/><path d="M.031 57.405v6.039l4.454 2.107L35.021 80V69.922" fill="#4b612c"/><path d="M69.969 57.405v6.039l-4.454 2.107L34.979 80V69.922" fill="#759c3e"/><path d="M50 47l-6.5-.5V40H50v7zm13.15-1l-6.65-.25-.1-5.75h6.75z" fill="#4b612c"/><path fill="#759c3e" d="M50 46.929l7-.5V40h6v6l7-.5V16.566L34.99 0 35 48l9-.643V40h6z"/></g></symbol></svg>